<svg width="96" height="96" viewBox="0 0 96 96" fill="none" xmlns="http://www.w3.org/2000/svg">
<g filter="url(#filter0_d_2163_8564)">
<rect x="4" width="88" height="88" rx="44" fill="#F0F0F0" shape-rendering="crispEdges"/>
<g clip-path="url(#clip0_2163_8564)">
<path d="M47.999 23.5002V33.0002" stroke="#8E8E8E" stroke-width="2" stroke-linecap="round" stroke-linejoin="round"/>
<path d="M54.0002 24.2791C55.9877 25.5725 57.5039 27.4736 58.323 29.6989C59.142 31.9242 59.2201 34.3546 58.5455 36.6279C57.8708 38.9012 56.4797 40.8956 54.5794 42.3139C52.679 43.7322 50.3712 44.4985 48 44.4985C45.6287 44.4985 43.3209 43.7322 41.4206 42.3139C39.5203 40.8956 38.1291 38.9011 37.4545 36.6279C36.7799 34.3546 36.858 31.9242 37.6771 29.6989C38.4961 27.4736 40.0124 25.5725 41.9998 24.2791" stroke="#8E8E8E" stroke-width="2" stroke-linecap="round" stroke-linejoin="round"/>
</g>
<path d="M25.0043 65.5H31.3331V63.9538H26.8487V55.3182H25.0043V65.5ZM36.1854 65.6491C38.4226 65.6491 39.8445 64.0732 39.8445 61.7116C39.8445 59.3452 38.4226 57.7642 36.1854 57.7642C33.9482 57.7642 32.5263 59.3452 32.5263 61.7116C32.5263 64.0732 33.9482 65.6491 36.1854 65.6491ZM36.1953 64.2074C34.9574 64.2074 34.3509 63.1037 34.3509 61.7067C34.3509 60.3097 34.9574 59.1911 36.1953 59.1911C37.4134 59.1911 38.0199 60.3097 38.0199 61.7067C38.0199 63.1037 37.4134 64.2074 36.1953 64.2074ZM44.693 68.5227C46.7562 68.5227 48.2775 67.5781 48.2775 65.6243V57.8636H46.5027V59.1264H46.4032C46.1298 58.5746 45.5581 57.7642 44.2108 57.7642C42.4458 57.7642 41.0588 59.1463 41.0588 61.657C41.0588 64.1477 42.4458 65.3906 44.2058 65.3906C45.5133 65.3906 46.1248 64.6896 46.4032 64.1278H46.4927V65.5746C46.4927 66.6982 45.747 67.1605 44.7228 67.1605C43.639 67.1605 43.1618 66.6484 42.943 66.201L41.3223 66.5938C41.6504 67.6626 42.7491 68.5227 44.693 68.5227ZM44.7079 63.9787C43.5197 63.9787 42.8933 63.054 42.8933 61.647C42.8933 60.2599 43.5098 59.2408 44.7079 59.2408C45.8663 59.2408 46.5027 60.2003 46.5027 61.647C46.5027 63.1037 45.8564 63.9787 44.7079 63.9787ZM53.4529 65.6491C55.6902 65.6491 57.112 64.0732 57.112 61.7116C57.112 59.3452 55.6902 57.7642 53.4529 57.7642C51.2157 57.7642 49.7939 59.3452 49.7939 61.7116C49.7939 64.0732 51.2157 65.6491 53.4529 65.6491ZM53.4629 64.2074C52.225 64.2074 51.6184 63.1037 51.6184 61.7067C51.6184 60.3097 52.225 59.1911 53.4629 59.1911C54.6809 59.1911 55.2875 60.3097 55.2875 61.7067C55.2875 63.1037 54.6809 64.2074 53.4629 64.2074ZM63.5067 62.2884C63.5067 63.4517 62.6765 64.0284 61.881 64.0284C61.016 64.0284 60.4393 63.4169 60.4393 62.4474V57.8636H58.6396V62.7259C58.6396 64.5604 59.6836 65.5994 61.185 65.5994C62.3285 65.5994 63.1339 64.9979 63.4819 64.1428H63.5614V65.5H65.3065V57.8636H63.5067V62.2884ZM70.9703 57.8636H69.464V56.0341H67.6642V57.8636H66.5804V59.2557H67.6642V63.5014C67.6543 64.9382 68.6983 65.6442 70.0506 65.6044C70.5627 65.5895 70.9157 65.4901 71.1096 65.4254L70.8063 64.0185C70.7069 64.0433 70.503 64.0881 70.2793 64.0881C69.8269 64.0881 69.464 63.929 69.464 63.2031V59.2557H70.9703V57.8636Z" fill="#8E8E8E"/>
</g>
<defs>
<filter id="filter0_d_2163_8564" x="0" y="0" width="96" height="96" filterUnits="userSpaceOnUse" color-interpolation-filters="sRGB">
<feFlood flood-opacity="0" result="BackgroundImageFix"/>
<feColorMatrix in="SourceAlpha" type="matrix" values="0 0 0 0 0 0 0 0 0 0 0 0 0 0 0 0 0 0 127 0" result="hardAlpha"/>
<feOffset dy="4"/>
<feGaussianBlur stdDeviation="2"/>
<feComposite in2="hardAlpha" operator="out"/>
<feColorMatrix type="matrix" values="0 0 0 0 0 0 0 0 0 0 0 0 0 0 0 0 0 0 0.25 0"/>
<feBlend mode="normal" in2="BackgroundImageFix" result="effect1_dropShadow_2163_8564"/>
<feBlend mode="normal" in="SourceGraphic" in2="effect1_dropShadow_2163_8564" result="shape"/>
</filter>
<clipPath id="clip0_2163_8564">
<rect width="32" height="32" fill="white" transform="translate(32 17.5)"/>
</clipPath>
</defs>
</svg>
